<?xml version="1.0" ?><svg data-name="Layer 1" id="Layer_1" viewBox="0 0 32 32" xmlns="http://www.w3.org/2000/svg"><title/><path d="M16,24.5A8.5,8.5,0,1,1,24.5,16,8.51,8.51,0,0,1,16,24.5Zm0-15A6.5,6.5,0,1,0,22.5,16,6.508,6.508,0,0,0,16,9.5Z"/><path d="M18,17H16a1,1,0,0,1-1-1V12a1,1,0,0,1,2,0v3h1a1,1,0,0,1,0,2Z"/><path d="M20.879,11.32A1,1,0,0,1,19.9,10.5l-.835-4.672A1,1,0,0,0,18.076,5H13.924a1,1,0,0,0-.984.824L12.1,10.5a1,1,0,0,1-1.968-.352l.835-4.672A3,3,0,0,1,13.924,3h4.152a3,3,0,0,1,2.953,2.472l.835,4.672a1,1,0,0,1-.808,1.16A.971.971,0,0,1,20.879,11.32Z"/><path d="M18.076,29H13.924a3,3,0,0,1-2.953-2.472l-.835-4.672A1,1,0,0,1,12.1,21.5l.836,4.672a1,1,0,0,0,.984.824h4.152a1,1,0,0,0,.985-.824L19.9,21.5a1,1,0,1,1,1.968.352l-.835,4.672A3,3,0,0,1,18.076,29Z"/></svg>